<svg id="Group_180" data-name="Group 180" xmlns="http://www.w3.org/2000/svg" width="21.844" height="21.844" viewBox="0 0 21.844 21.844">
  <path id="Path_279" data-name="Path 279" d="M0,0H21.844V21.844H0Z" fill="none"/>
  <path id="Path_280" data-name="Path 280" d="M15,8a4.551,4.551,0,0,1,0,7.281" transform="translate(-1.348 -0.719)" fill="none" stroke="#f0f8ff" stroke-linecap="round" stroke-linejoin="round" stroke-width="2"/>
  <path id="Path_281" data-name="Path 281" d="M17.7,5a8.191,8.191,0,0,1,0,12.742" transform="translate(-1.59 -0.449)" fill="none" stroke="#f0f8ff" stroke-linecap="round" stroke-linejoin="round" stroke-width="2"/>
  <path id="Path_282" data-name="Path 282" d="M5.73,14.018H3.91a.91.91,0,0,1-.91-.91V9.467a.91.91,0,0,1,.91-.91H5.73l3.186-4.1a.728.728,0,0,1,1.365.455V17.658a.728.728,0,0,1-1.365.455l-3.186-4.1" transform="translate(-0.27 -0.365)" fill="none" stroke="#f0f8ff" stroke-linecap="round" stroke-linejoin="round" stroke-width="2"/>
</svg>
