<svg xmlns="http://www.w3.org/2000/svg" xmlns:xlink="http://www.w3.org/1999/xlink" width="202.002" height="41.737" viewBox="0 0 202.002 41.737">
  <defs>
    <radialGradient id="radial-gradient" cx="0.5" cy="0.5" r="0.5" gradientUnits="objectBoundingBox">
      <stop offset="0" stop-opacity="0.2"/>
      <stop offset="0.264" stop-opacity="0.102"/>
      <stop offset="1" stop-color="gray" stop-opacity="0"/>
    </radialGradient>
  </defs>
  <g id="Group_7180" data-name="Group 7180" transform="translate(-39.999 -40)">
    <g id="Group_7179" data-name="Group 7179" transform="translate(-384.277 -446.073)">
      <g id="Group_6606" data-name="Group 6606" transform="translate(424.276 505.476)">
        <path id="Path_155" data-name="Path 155" d="M489.553,547.216l-18.042,5.643a7.359,7.359,0,0,1-4.107.083l-22.494-6.05a1.287,1.287,0,0,1-.079-2.461l17.133-5.806a7.357,7.357,0,0,1,4.273-.137l23.267,6.258A1.286,1.286,0,0,1,489.553,547.216Z" transform="translate(-435.524 -530.86)" fill="#474f57"/>
        <path id="Path_156" data-name="Path 156" d="M510.831,546.5v-4.2a1.176,1.176,0,0,0-1.529-1.122L490.47,547.1a3.765,3.765,0,0,1-2.108.044h0l-.282,6.59h0a4.774,4.774,0,0,0,2.667-.058l19.261-6.054A1.177,1.177,0,0,0,510.831,546.5Z" transform="translate(-456.996 -532.264)" fill="#fff"/>
        <path id="Path_155-2" data-name="Path 155" d="M486.224,533.823l-18.042,5.642a7.359,7.359,0,0,1-4.107.082l-26.6-6.915c-.5-.139-.484-.95.156-1.152l18.437-6.786a7.352,7.352,0,0,1,4.272-.137l25.838,6.794A1.287,1.287,0,0,1,486.224,533.823Z" transform="translate(-432.195 -524.081)" fill="#474f57"/>
        <path id="Path_1495" data-name="Path 1495" d="M490.363,556.007s-.22-1.885,1.295-2.262l-2.3-.526-2.276,1.052,2.5,6.032,2.43-1.287s-1.558.768-1.558-.626S490.363,556.007,490.363,556.007Z" transform="translate(-456.508 -538.152)" fill="#474f57"/>
        <path id="Path_1496" data-name="Path 1496" d="M436.962,538.282s-1.212.34-1.212,2.383l2.855-.021Z" transform="translate(-431.53 -530.883)" fill="#474f57"/>
        <path id="Path_1497" data-name="Path 1497" d="M491.954,565.347l.826-.27s.014-.1.014-1.494" transform="translate(-458.881 -543.195)" fill="#474f57"/>
        <path id="Path_158" data-name="Path 158" d="M435.63,544.974c0-.747.028-1.757.062-3.358a1.4,1.4,0,0,1,1.762-1.33l26.918,7.24a1.394,1.394,0,0,1,1.035,1.358c-.007.922-.014,2.323-.008,3.754a1.4,1.4,0,0,1-1.761,1.357l-27-7.264C436.381,546.663,435.623,546.375,435.63,544.974Z" transform="translate(-431.472 -531.834)" fill="#363e46"/>
        <rect id="Rectangle_1121" data-name="Rectangle 1121" width="15.66" height="60.001" transform="translate(0 15.885) rotate(-90)" fill="url(#radial-gradient)"/>
        <rect id="Rectangle_1122" data-name="Rectangle 1122" width="15.66" height="60.001" transform="translate(0 15.66) rotate(-90)" fill="url(#radial-gradient)"/>
      </g>
      <g id="Group_6607" data-name="Group 6607" transform="translate(442.827 486.073)">
        <path id="Path_134" data-name="Path 134" d="M499.077,487.076l.248,1.666,1.674.25a.5.5,0,0,1,.149.942l-1.513.755.28,1.664a.5.5,0,0,1-.85.433l-1.184-1.2-1.492.779a.5.5,0,0,1-.675-.674l.779-1.5-1.205-1.183a.5.5,0,0,1,.433-.849l1.664.278.752-1.51A.5.5,0,0,1,499.077,487.076Z" transform="translate(-478.981 -486.353)" fill="#fff"/>
        <path id="Path_1498" data-name="Path 1498" d="M485.074,498.021A8.353,8.353,0,1,1,474.233,487.3a.634.634,0,0,0-.272-1.226l-.139.014a11.353,11.353,0,1,0,12.5,12.342c0-.047.008-.094.012-.141A.652.652,0,0,0,485.074,498.021Z" transform="translate(-463.668 -486.073)" fill="#fff"/>
      </g>
    </g>
    <g id="Group_6605" data-name="Group 6605" transform="translate(-307.605 -535.338)">
      <g id="Group_6603" data-name="Group 6603">
        <path id="Path_1485" data-name="Path 1485" d="M424.661,588.576v12.911h5.057v1.534h-6.943V588.576Z" fill="#f8f8f8"/>
        <path id="Path_1486" data-name="Path 1486" d="M439.505,590.11H433.62v4.829h5.263v1.554H433.62v4.974h5.885v1.554h-7.772V588.555h7.772Z" fill="#f8f8f8"/>
        <path id="Path_1487" data-name="Path 1487" d="M450.909,599.809h-6.3l-1.16,3.212h-1.99l5.222-14.362h2.176l5.2,14.362h-1.99Zm-3.149-8.829-2.612,7.3h5.222Z" fill="#f8f8f8"/>
        <path id="Path_1488" data-name="Path 1488" d="M461.01,588.576c3.4,0,5.015,1.886,5.015,4.248a4.075,4.075,0,0,1-3.44,4.146l3.627,6.051h-2.259l-3.441-5.906h-2.28v5.906h-1.886V588.576Zm0,1.554h-2.778V595.6h2.778c2.135,0,3.067-1.161,3.067-2.778C464.077,591.188,463.165,590.13,461.01,590.13Z" fill="#f8f8f8"/>
        <path id="Path_1489" data-name="Path 1489" d="M480.312,588.555v14.466h-1.887l-7.585-11.5v11.5h-1.886V588.555h1.886l7.585,11.482V588.555Z" fill="#f8f8f8"/>
      </g>
      <g id="Group_6604" data-name="Group 6604">
        <path id="Path_1490" data-name="Path 1490" d="M489.087,588.545h3.544v14.548h-3.544Z" fill="#f8f8f8"/>
        <path id="Path_1491" data-name="Path 1491" d="M500.469,603.239c-3.13,0-5.575-1.555-5.678-4.5h3.772a1.667,1.667,0,0,0,1.8,1.658c1.036,0,1.7-.518,1.7-1.367,0-2.7-7.273-1.244-7.233-6.4,0-2.756,2.26-4.289,5.306-4.289,3.171,0,5.306,1.574,5.451,4.352h-3.834a1.575,1.575,0,0,0-1.679-1.513,1.289,1.289,0,0,0-1.492,1.326c0,2.528,7.192,1.388,7.192,6.259C505.775,601.208,503.868,603.239,500.469,603.239Z" fill="#f8f8f8"/>
        <path id="Path_1492" data-name="Path 1492" d="M511.5,588.545v11.813h4.642v2.735h-8.186V588.545Z" fill="#f8f8f8"/>
        <path id="Path_1493" data-name="Path 1493" d="M526.9,600.523h-5.43l-.869,2.57h-3.711l5.265-14.548h4.1l5.265,14.548h-3.751Zm-2.715-8.062-1.782,5.327h3.586Z" fill="#f8f8f8"/>
        <path id="Path_1494" data-name="Path 1494" d="M533.129,588.545h4.187l4.082,10.071,4.042-10.071h4.166v14.548h-3.543v-8.725l-3.254,8.725h-2.86l-3.276-8.745v8.745h-3.544Z" fill="#f8f8f8"/>
      </g>
    </g>
  </g>
</svg>
