<svg xmlns="http://www.w3.org/2000/svg" width="34.229" height="27.067" viewBox="0 0 34.229 27.067">
  <g id="Group_6352" data-name="Group 6352" transform="translate(-758.774 -226.637)">
    <path id="Path_1297" data-name="Path 1297" d="M784.511,242.084v6.94c0,2.03-3.86,3.68-8.62,3.68s-8.62-1.65-8.62-3.68v-6.94l6.24,3.62a4.714,4.714,0,0,0,4.76,0Z" fill="rgba(61,176,253,0.5)" stroke="#3db0fd" stroke-linecap="round" stroke-miterlimit="10" stroke-width="2"/>
    <line id="Line_35" data-name="Line 35" y1="10.064" transform="translate(761.903 238.957)" fill="none" stroke="#3db0fd" stroke-linecap="round" stroke-miterlimit="10" stroke-width="2"/>
    <path id="Path_1298" data-name="Path 1298" d="M791.231,238.184l-6.72,3.9-6.24,3.62a4.714,4.714,0,0,1-4.76,0l-6.24-3.62-5.37-3.12-1.35-.78a1.468,1.468,0,0,1-.48-.48,1.337,1.337,0,0,1,.48-1.83l12.96-7.53a4.714,4.714,0,0,1,4.76,0l12.96,7.53a1.3,1.3,0,0,1,.48.48A1.351,1.351,0,0,1,791.231,238.184Z" fill="rgba(61,176,253,0.5)" stroke="#3db0fd" stroke-linecap="round" stroke-miterlimit="10" stroke-width="2"/>
  </g>
</svg>
