<svg xmlns="http://www.w3.org/2000/svg" xmlns:xlink="http://www.w3.org/1999/xlink" width="523.012" height="659.781" viewBox="0 0 523.012 659.781">
  <defs>
    <clipPath id="clip-path">
      <path id="Path_1558" data-name="Path 1558" d="M227.9-363.744a30.734,30.734,0,0,0,5.49-.066c-1.828.07-3.658.1-5.49.066" transform="translate(-227.902 363.81)" fill="none" clip-rule="evenodd"/>
    </clipPath>
    <clipPath id="clip-path-2">
      <path id="Path_1560" data-name="Path 1560" d="M222.818-167.5A136.621,136.621,0,0,1,86.2-304.123,136.621,136.621,0,0,1,222.818-440.745a137.453,137.453,0,0,1,24.6,2.213,171.961,171.961,0,0,0-74.79-17A172.632,172.632,0,0,0,0-282.9,172.632,172.632,0,0,0,172.632-110.266,172.7,172.7,0,0,0,336.41-228.2,136.485,136.485,0,0,1,222.818-167.5" transform="translate(0 455.53)" fill="none" clip-rule="evenodd"/>
    </clipPath>
    <clipPath id="clip-path-3">
      <path id="Path_1562" data-name="Path 1562" d="M92.065-154.243C75.794-172.317,61.72-192.5,52.089-214.891a181.571,181.571,0,0,1-14.9-65.453A163.254,163.254,0,0,1,47.96-344.793,160.172,160.172,0,0,1,84.6-400.464,187.5,187.5,0,0,1,114-423.977a151.615,151.615,0,0,1,35.75-17.288c21.1-6.9,43.271-8.62,65.354-8.988a172.955,172.955,0,0,0-42.47-5.276A172.632,172.632,0,0,0,0-282.9,172.669,172.669,0,0,0,146.829-112.187c-21.072-9.758-39.286-24.865-54.764-42.056" transform="translate(0 455.53)" fill="none" clip-rule="evenodd"/>
    </clipPath>
    <clipPath id="clip-path-4">
      <path id="Path_1564" data-name="Path 1564" d="M146.4-249.394a21.383,21.383,0,0,1,11.53,19.669c-.068,4.03-3.17,19.389-9.113,19.537,12.09-.3,26.189,2.277,31.852,12.963,2.3,4.342,3.037,9.789,6.872,12.864,4.682,3.753,11.7,2.082,16.879-.953a60.831,60.831,0,0,1-56.088,3.486c-3.155-1.438-6.191-3.151-9.463-4.3-11.317-3.978-23.815-.749-35.119,3.265s-22.809,8.88-34.78,8.1c-11.763-.761-22.438-6.886-33.82-9.953s-25.687-1.943-32.012,8c-3.4-12.117,4.246-27.622,16.444-31.318a23.67,23.67,0,0,1,25.687,9.053c-4.824-11.813-3.931-26.526,4.608-36.008s25.262-11.248,34-1.949A23.014,23.014,0,0,1,88.984-258a23.013,23.013,0,0,1,20.5-7.064c8.477,1.444,19.979,9.717,15.143,19.7,4.912-6.32,14.648-7.675,21.772-4.025" transform="translate(-2.329 265.371)" fill="none" clip-rule="evenodd"/>
    </clipPath>
    <clipPath id="clip-path-5">
      <path id="Path_1566" data-name="Path 1566" d="M269.151-392.13a21.384,21.384,0,0,0-11.531,19.669c.068,4.03,3.171,19.389,9.114,19.537-12.091-.3-26.19,2.276-31.852,12.963-2.3,4.342-3.039,9.789-6.873,12.863-4.683,3.754-11.7,2.083-16.879-.953a60.83,60.83,0,0,0,56.089,3.487c3.155-1.437,6.191-3.151,9.462-4.3,11.317-3.979,23.815-.75,35.119,3.264s22.809,8.878,34.78,8.1c11.764-.761,22.438-6.886,33.82-9.953s25.687-1.944,32.011,8c3.4-12.118-4.245-27.622-16.442-31.318a23.667,23.667,0,0,0-25.687,9.053c4.822-11.813,3.93-26.526-4.609-36.008s-25.263-11.248-34-1.949a23.009,23.009,0,0,0-5.107-21.072,23.009,23.009,0,0,0-20.5-7.064c-8.478,1.444-19.979,9.716-15.144,19.7-4.913-6.321-14.648-7.675-21.771-4.025" transform="translate(-211.129 408.107)" fill="none" clip-rule="evenodd"/>
    </clipPath>
    <clipPath id="clip-path-6">
      <path id="Path_1568" data-name="Path 1568" d="M414.915-243.749h0l2.754-3.855a4.762,4.762,0,0,0-.458-6.086l-2-2.057a4.763,4.763,0,0,1-.341-6.242,4.763,4.763,0,0,0-.325-6.223l-5.842-6.086a40.013,40.013,0,0,0,1.951-47.07l-21.25-31.875a7.307,7.307,0,0,0,5.285-7.018,7.3,7.3,0,0,0-3.561-6.266,4.877,4.877,0,0,0,1.179-3.163,4.919,4.919,0,0,0-2.887-4.474l-1.506-20h-1.143l-1.509,20.044a4.914,4.914,0,0,0-2.808,4.43,4.883,4.883,0,0,0,1.179,3.163,7.3,7.3,0,0,0-3.561,6.266,7.309,7.309,0,0,0,5.808,7.152l-21.159,31.741a40.012,40.012,0,0,0,1.951,47.07l-5.843,6.086a4.763,4.763,0,0,0-.324,6.223,4.762,4.762,0,0,1-.343,6.242l-2,2.057a4.764,4.764,0,0,0-.457,6.086l2.753,3.855a364.27,364.27,0,0,0-24.043,61.391l-10.62-9.965c36.133-41.014,38.771-98.343,6.531-141.911l-31.917-43.128a3.038,3.038,0,0,0,.22-1.124v-.287a3.042,3.042,0,0,0-3.041-3.042h-.476L279.01-406.287a3.164,3.164,0,0,0,.684-1.952,3.186,3.186,0,0,0-3.185-3.186h-1.3l-15.423-20.841a4.876,4.876,0,0,0,.68-2.457,4.917,4.917,0,0,0-2.887-4.473l-1.505-20h-1.145l-1.509,20.043a4.915,4.915,0,0,0-2.807,4.43,4.875,4.875,0,0,0,.623,2.352l-15.5,20.946H233.9a3.185,3.185,0,0,0-3.186,3.186,3.174,3.174,0,0,0,.971,2.284l-17.863,24.139h-.59a3.042,3.042,0,0,0-3.042,3.042v.287a3.022,3.022,0,0,0,.261,1.224l-31.843,43.029c-32.241,43.568-29.6,100.9,6.531,141.911l-9.581,8.991a364.229,364.229,0,0,0-23.76-60.417l2.754-3.855a4.763,4.763,0,0,0-.458-6.086l-2-2.057a4.763,4.763,0,0,1-.341-6.242,4.764,4.764,0,0,0-.324-6.223l-5.843-6.086a40.012,40.012,0,0,0,1.951-47.07L126.4-353.087a7.307,7.307,0,0,0,5.941-7.175,7.3,7.3,0,0,0-3.561-6.266,4.877,4.877,0,0,0,1.178-3.163,4.919,4.919,0,0,0-2.887-4.474l-1.506-20h-1.143l-1.509,20.044a4.914,4.914,0,0,0-2.808,4.43,4.883,4.883,0,0,0,1.179,3.163,7.3,7.3,0,0,0-3.561,6.266,7.311,7.311,0,0,0,5.159,6.986l-21.271,31.908a40.013,40.013,0,0,0,1.951,47.07l-5.843,6.086a4.762,4.762,0,0,0-.324,6.223,4.763,4.763,0,0,1-.341,6.242l-2,2.057a4.763,4.763,0,0,0-.459,6.086l2.754,3.855A364.3,364.3,0,0,0,58.826-80.708v99.58H190.32V-28.855H350.184c-.225-.41-.448-3.086-.672-7.177H453.438V-80.708a364.285,364.285,0,0,0-38.523-163.041" transform="translate(-58.826 459.196)" fill="none" clip-rule="evenodd"/>
    </clipPath>
    <clipPath id="clip-path-7">
      <path id="Path_1570" data-name="Path 1570" d="M114.475-14.152c.685-19.829,5.253-39.527,10.5-58.6A371.778,371.778,0,0,1,175.9-183.186c2.058-3.024,4.178-6.007,6.323-8.971l-6.668,6.258a364.229,364.229,0,0,0-23.76-60.417l2.754-3.855a4.763,4.763,0,0,0-.458-6.086l-2-2.057a4.763,4.763,0,0,1-.341-6.242,4.764,4.764,0,0,0-.324-6.223l-5.843-6.086a40.012,40.012,0,0,0,1.951-47.07L126.4-355.654a7.307,7.307,0,0,0,5.941-7.175,7.3,7.3,0,0,0-3.561-6.266,4.877,4.877,0,0,0,1.178-3.163,4.919,4.919,0,0,0-2.887-4.474l-1.506-20h-1.143l-1.509,20.044a4.914,4.914,0,0,0-2.808,4.43,4.883,4.883,0,0,0,1.179,3.163,7.3,7.3,0,0,0-3.561,6.266,7.311,7.311,0,0,0,5.159,6.986l-21.271,31.908a40.013,40.013,0,0,0,1.951,47.07l-5.843,6.086a4.762,4.762,0,0,0-.324,6.223,4.763,4.763,0,0,1-.341,6.242l-2,2.057a4.763,4.763,0,0,0-.459,6.086l2.754,3.855A364.3,364.3,0,0,0,58.826-83.275V16.3H114.2c.207-10.172-.074-20.387.274-30.456" transform="translate(-58.826 396.733)" fill="none" clip-rule="evenodd"/>
    </clipPath>
    <clipPath id="clip-path-8">
      <path id="Path_1572" data-name="Path 1572" d="M258.476-272.324a442.286,442.286,0,0,1,78.316-49.034,118.812,118.812,0,0,0-8.3-12.876l-31.917-43.128a3.038,3.038,0,0,0,.22-1.124v-.287a3.042,3.042,0,0,0-3.041-3.042h-.476l-18.109-24.471a3.164,3.164,0,0,0,.684-1.952,3.186,3.186,0,0,0-3.185-3.186h-1.3l-15.423-20.841a4.876,4.876,0,0,0,.68-2.457,4.917,4.917,0,0,0-2.887-4.473l-1.505-20h-1.145l-1.509,20.043a4.915,4.915,0,0,0-2.807,4.43,4.875,4.875,0,0,0,.623,2.352l-15.5,20.946h-1.834a3.185,3.185,0,0,0-3.186,3.186,3.174,3.174,0,0,0,.971,2.284l-17.863,24.139h-.59a3.042,3.042,0,0,0-3.042,3.042v.287a3.022,3.022,0,0,0,.261,1.224l-31.843,43.029c-32.09,43.363-29.615,100.35,6.033,141.324a420.042,420.042,0,0,1,77.675-79.414" transform="translate(-152.282 459.196)" fill="none" clip-rule="evenodd"/>
    </clipPath>
    <clipPath id="clip-path-9">
      <path id="Path_1574" data-name="Path 1574" d="M373.4-355.677l-10.928,16.393q10.079-4.071,20.312-7.737l-5.859-8.79a7.307,7.307,0,0,0,5.285-7.018,7.3,7.3,0,0,0-3.561-6.266,4.877,4.877,0,0,0,1.179-3.163,4.919,4.919,0,0,0-2.887-4.474l-1.506-20h-1.143l-1.509,20.044a4.914,4.914,0,0,0-2.808,4.43,4.883,4.883,0,0,0,1.179,3.163,7.3,7.3,0,0,0-3.561,6.266,7.309,7.309,0,0,0,5.808,7.152" transform="translate(-362.476 396.733)" fill="none" clip-rule="evenodd"/>
    </clipPath>
    <clipPath id="clip-path-10">
      <path id="Path_1581" data-name="Path 1581" d="M397.932-44.877H464.66V-226.358H397.932Z" transform="translate(-397.932 226.358)" fill="none"/>
    </clipPath>
    <clipPath id="clip-path-11">
      <rect id="Rectangle_1270" data-name="Rectangle 1270" width="68.712" height="183.233" fill="none"/>
    </clipPath>
    <clipPath id="clip-path-12">
      <path id="Path_1577" data-name="Path 1577" d="M454.455-225.082c-4.126-2.339-9.287-1.252-13.177,1.549s-6.738,7.071-9.3,11.386c-14.567,24.523-23.523,53.509-28.568,83.5-4.7,27.94-6.007,56.749-5.3,83.624,0,.05,0,.1.005.149h18.62c-.016-.435-.03-.872-.045-1.306-1.84-50.319,10.816-101.178,35.621-143.151,3.35-5.67,7-11.388,8.236-18.047s-.685-14.629-6.1-17.7" transform="translate(-397.932 226.358)" fill="none" clip-rule="evenodd"/>
    </clipPath>
    <clipPath id="clip-path-13">
      <path id="Path_1576" data-name="Path 1576" d="M397-44.808h67.671V-227H397Z" transform="translate(-397 227)" fill="none"/>
    </clipPath>
    <clipPath id="clip-path-14">
      <path id="Path_1580" data-name="Path 1580" d="M458.055-174.342c-4.125-1.643-9.287-.879-13.177,1.087s-6.737,4.966-9.3,8c-14.568,17.22-23.525,37.574-28.569,58.63-4.7,19.621-6.007,39.85-5.294,58.722.01.307.028.617.045.928h18.619c-.023-.581-.054-1.162-.085-1.741-1.839-35.334,10.817-71.048,35.621-100.52,3.351-3.982,7-8,8.237-12.673a10.341,10.341,0,0,0-6.1-12.43" transform="translate(-401.532 175.238)" fill="none" clip-rule="evenodd"/>
    </clipPath>
    <clipPath id="clip-path-16">
      <path id="Path_1583" data-name="Path 1583" d="M402.552-48.719c-.03.579-.062,1.16-.085,1.741h18.62c.017-.31.032-.62.045-.928.713-18.872-.593-39.1-5.294-58.722-5.046-21.056-14-41.411-28.569-58.63-2.564-3.031-5.412-6.03-9.3-8s-9.051-2.73-13.177-1.087a10.342,10.342,0,0,0-6.1,12.43c1.24,4.677,4.886,8.691,8.236,12.673,24.805,29.472,37.461,65.186,35.622,100.52" transform="translate(-358.332 175.238)" fill="none" clip-rule="evenodd"/>
    </clipPath>
    <clipPath id="clip-path-17">
      <path id="Path_1585" data-name="Path 1585" d="M393.911-49.257c-.016.2-.029.4-.043.592h18.618c0-.015,0-.031,0-.047A100.459,100.459,0,0,0,407.2-88.135,87.006,87.006,0,0,0,378.628-127.5a30.141,30.141,0,0,0-9.3-5.369,24.328,24.328,0,0,0-13.177-.73c-5.411,1.448-7.335,5.2-6.095,8.345s4.885,5.834,8.236,8.508c24.8,19.788,37.46,43.765,35.621,67.486" transform="translate(-349.692 134.198)" fill="none" clip-rule="evenodd"/>
    </clipPath>
    <clipPath id="clip-path-18">
      <path id="Path_1587" data-name="Path 1587" d="M120.966-172.615c-4.126-2.34-9.287-1.252-13.177,1.549s-6.738,7.071-9.3,11.386c-14.567,24.522-23.524,53.509-28.568,83.5-4.681,27.818-5.995,56.5-5.3,83.268H83.232c-.01-.267-.019-.535-.027-.8-1.84-50.319,10.816-101.178,35.62-143.151,3.351-5.67,7-11.388,8.236-18.048s-.684-14.629-6.095-17.7" transform="translate(-64.444 173.892)" fill="none" clip-rule="evenodd"/>
    </clipPath>
    <clipPath id="clip-path-19">
      <path id="Path_1589" data-name="Path 1589" d="M124.566-121.875c-4.125-1.643-9.287-.88-13.178,1.087s-6.736,4.966-9.3,8c-14.568,17.22-23.525,37.574-28.57,58.63-4.7,19.621-6.006,39.85-5.294,58.721.005.141.015.283.021.424h18.62c-.021-.412-.04-.825-.061-1.236C84.965-31.586,97.621-67.3,122.425-96.773c3.351-3.981,7-8,8.236-12.672a10.339,10.339,0,0,0-6.095-12.43" transform="translate(-68.043 122.771)" fill="none" clip-rule="evenodd"/>
    </clipPath>
    <clipPath id="clip-path-20">
      <path id="Path_1591" data-name="Path 1591" d="M69.062,3.748q-.031.617-.06,1.236h18.62c.006-.141.016-.283.021-.424.712-18.871-.594-39.1-5.294-58.721-5.046-21.056-14-41.411-28.57-58.63-2.564-3.031-5.411-6.03-9.3-8s-9.052-2.73-13.178-1.087a10.34,10.34,0,0,0-6.095,12.43c1.24,4.677,4.885,8.691,8.236,12.672C58.245-67.3,70.9-31.586,69.062,3.748" transform="translate(-24.843 122.771)" fill="none" clip-rule="evenodd"/>
    </clipPath>
    <clipPath id="clip-path-21">
      <path id="Path_1593" data-name="Path 1593" d="M60.422,3.21c0,.029,0,.058-.005.087H79.023a100.32,100.32,0,0,0-5.316-38.965A87.016,87.016,0,0,0,45.138-75.032a30.167,30.167,0,0,0-9.3-5.368,24.319,24.319,0,0,0-13.177-.73c-5.412,1.448-7.335,5.2-6.1,8.345s4.886,5.834,8.237,8.507c24.8,19.788,37.46,43.766,35.62,67.487" transform="translate(-16.203 81.731)" fill="none" clip-rule="evenodd"/>
    </clipPath>
    <clipPath id="clip-path-22">
      <path id="Path_1595" data-name="Path 1595" d="M142.286-52.736l-81.92,54.9H371.645l81.921-54.9H142.286" transform="translate(-60.366 52.736)" fill="none" clip-rule="evenodd"/>
    </clipPath>
    <clipPath id="clip-path-23">
      <path id="Path_1597" data-name="Path 1597" d="M141.8-48.979,69.484-1.118H365.732L443.7-49.7,141.8-48.979" transform="translate(-69.484 49.7)" fill="none" clip-rule="evenodd"/>
    </clipPath>
    <clipPath id="clip-path-24">
      <path id="Path_1600" data-name="Path 1600" d="M372.2-27.589a2.4,2.4,0,0,0,2.9.76,2.4,2.4,0,0,0,1.24-2.734,1.113,1.113,0,0,0,1.392.656,2.2,2.2,0,0,0,1.22-1.144,4.54,4.54,0,0,0,.521-2.5,1.126,1.126,0,0,0,1.2,1.065,1.759,1.759,0,0,0,1.389-1.025,4.271,4.271,0,0,0,.352-1.76,9.158,9.158,0,0,0-2.735-7.079,39.607,39.607,0,0,0-6.579-5.967,15.2,15.2,0,0,0-9.781-2.9c-2.676.258-5.508,1.839-6.053,4.47a6.92,6.92,0,0,0,1.161,4.825c1.2,2.006,2.845,3.708,4.153,5.644a12.545,12.545,0,0,1,1.624,3.249,9.9,9.9,0,0,1,.2,3.531,6.215,6.215,0,0,0,.841,3.859,3.7,3.7,0,0,0,3.033,1.442,4.4,4.4,0,0,0,3.077-1.442,3.071,3.071,0,0,0,.843-2.947" transform="translate(-357.177 50.273)" fill="none" clip-rule="evenodd"/>
    </clipPath>
    <clipPath id="clip-path-25">
      <path id="Path_1602" data-name="Path 1602" d="M271.46-2.888c11.662,1.7,23.334,3.315,35.021,4.778,5.515.69,11.248,1.346,16.523-.4,6.438-2.134,11.318-7.657,14.144-13.823,3.318-7.238,4.713-15.937,5.38-23.841,1.919-22.735-4.9-45.068-14.62-65.981-6.25-13.438-9.5-35.285-30.888-30.943-6.264,1.271-120.586,58.441-133.707,71.052-5.828,5.6-10.049,12.644-9.746,19.815.832,19.687,19.91,23.377,35.515,26.53,27.265,5.509,54.885,8.813,82.377,12.815" transform="translate(-153.553 133.661)" fill="none" clip-rule="evenodd"/>
    </clipPath>
    <clipPath id="clip-path-26">
      <path id="Path_1604" data-name="Path 1604" d="M326.218-102.156c-6.25-13.438-9.5-35.285-30.888-30.943-14.463,2.935-23.578,13.25-34.729,21.9L221.422-80.79c-9.923,7.7-20.056,15.631-26.71,26.282,13-3.9,29.05-1.865,35.511,11.6,1.925,4.012,2.269,8.618,4.016,12.711,3.072,7.194,10.22,12,17.736,14.169,9.08,2.618,18.432,1.137,27.578,2.872a152.182,152.182,0,0,1,27.236,7.983,146.474,146.474,0,0,1,14.591,6.632c6.4-2.149,11.263-7.653,14.079-13.8,3.318-7.238,4.713-15.937,5.38-23.841,1.919-22.735-4.9-45.068-14.62-65.981" transform="translate(-194.712 133.661)" fill="none" clip-rule="evenodd"/>
    </clipPath>
    <clipPath id="clip-path-27">
      <path id="Path_1606" data-name="Path 1606" d="M225.284-273.036c-1.74-.943-2.2,2.746-2.325,3.875a39.892,39.892,0,0,1-2.188,8.513,50.493,50.493,0,0,0,1.812-9.329c.373-2.892.91-6.77-.167-9.567a2.294,2.294,0,0,0-1.093-1.283c-1.57-.743-2.28,1.13-2.466,2.314a90,90,0,0,1-2.809,13.408c.257-3.287,1.135-7.685,1.242-10.981.058-1.79,1.168-11.191-3.007-9.759a2.494,2.494,0,0,0-1.214,1.063c-.911,1.4-.838,3.291-.941,4.908-.233,3.662-1.246,9.833-2.714,13.229.694-3.641,2.537-9.889,1.813-13.61-.237-1.22-.865-2.745-2.342-2.731-1.389.014-1.925,1.36-2.3,2.472-1.036,3.084-1.616,6.282-2.619,9.365a75.362,75.362,0,0,1-3.567,8.638,26.7,26.7,0,0,0-2.047,17.649c.919,4.239,2.284,9.194,6.026,11.829,4.285,3.018,11.228,3.126,15.319-.352,2.091-1.779,2.741-4.159,3.212-6.768a28.518,28.518,0,0,0-.117-11.765,2.476,2.476,0,0,1-.1-.717,2.542,2.542,0,0,1,.283-.883,40.984,40.984,0,0,0,3.675-15.286c.055-1.306.162-2.939-.916-3.9a2.466,2.466,0,0,0-.451-.327Z" transform="translate(-197.69 285.992)" fill="none" clip-rule="evenodd"/>
    </clipPath>
    <clipPath id="clip-path-28">
      <path id="Path_1608" data-name="Path 1608" d="M211.346-241.872a14.766,14.766,0,0,0-1.354-2.63,21.156,21.156,0,0,0-4.059-4.453c-.337-.287-4.759-3.368-4.9-2.651,1.012-5.274,1.661-10.841-.366-15.985-.412-1.044-1.09-2.168-2.2-2.339a2.292,2.292,0,0,0-1.575.4,4.522,4.522,0,0,0-1.766,3.3c-.158,1.277-.007,2.572-.044,3.857-.09,3.1-1.257,6.02-2.327,8.89-1.057,2.838-1.752,5.22.178,7.885a46.879,46.879,0,0,1,3.151,4.03c.738,1.3,1.031,2.75,1.87,4.013a13.021,13.021,0,0,0,5.644,4.4c2.634,1.106,5.861,1.109,7.632-1.424,1.5-2.146,1.007-5.015.11-7.292" transform="translate(-191.721 269.95)" fill="none" clip-rule="evenodd"/>
    </clipPath>
    <clipPath id="clip-path-29">
      <path id="Path_1610" data-name="Path 1610" d="M244.129-262.454c-1.078.964-.97,2.6-.916,3.9a40.945,40.945,0,0,0,3.676,15.285,2.519,2.519,0,0,1,.282.883,2.445,2.445,0,0,1-.1.717,28.5,28.5,0,0,0-.117,11.765c.47,2.609,1.119,4.989,3.211,6.768,4.09,3.478,11.035,3.371,15.319.352,3.743-2.635,5.108-7.59,6.027-11.829a26.7,26.7,0,0,0-2.047-17.648A75.273,75.273,0,0,1,265.9-260.9c-1-3.083-1.585-6.281-2.619-9.364-.373-1.113-.91-2.459-2.3-2.473-1.477-.015-2.106,1.511-2.343,2.731-.724,3.72,1.119,9.97,1.814,13.61-1.468-3.4-2.481-9.568-2.714-13.23-.1-1.616-.032-3.5-.941-4.907a2.488,2.488,0,0,0-1.215-1.062c-4.174-1.431-3.064,7.969-3.006,9.759.107,3.3.984,7.695,1.242,10.98a90,90,0,0,1-2.81-13.408c-.185-1.185-.9-3.058-2.465-2.314a2.3,2.3,0,0,0-1.094,1.283c-1.075,2.8-.538,6.674-.166,9.567a50.492,50.492,0,0,0,1.81,9.329,39.954,39.954,0,0,1-2.188-8.513c-.121-1.129-.584-4.818-2.324-3.875a2.4,2.4,0,0,0-.452.328Z" transform="translate(-243.182 275.737)" fill="none" clip-rule="evenodd"/>
    </clipPath>
    <clipPath id="clip-path-30">
      <path id="Path_1612" data-name="Path 1612" d="M258.184-231.618a14.735,14.735,0,0,1,1.354-2.63A21.182,21.182,0,0,1,263.6-238.7c.336-.287,4.758-3.368,4.9-2.651-1.012-5.273-1.662-10.841.365-15.984.411-1.045,1.091-2.169,2.2-2.339a2.287,2.287,0,0,1,1.575.395,4.517,4.517,0,0,1,1.765,3.3c.159,1.277.008,2.572.045,3.857.09,3.1,1.257,6.021,2.327,8.891,1.057,2.838,1.752,5.219-.178,7.884a46.908,46.908,0,0,0-3.152,4.031c-.737,1.3-1.031,2.748-1.87,4.012a13.014,13.014,0,0,1-5.643,4.406c-2.634,1.1-5.862,1.109-7.633-1.424-1.5-2.147-1.007-5.016-.109-7.293" transform="translate(-257.334 259.696)" fill="none" clip-rule="evenodd"/>
    </clipPath>
    <clipPath id="clip-path-31">
      <path id="Path_1614" data-name="Path 1614" d="M211.769-272.776h0v0a0,0,0,0,1,0,0" transform="translate(-211.768 272.777)" fill="none" clip-rule="evenodd"/>
    </clipPath>
    <clipPath id="clip-path-32">
      <path id="Path_1616" data-name="Path 1616" d="M367.562-127.892c-.915,3.689-3.042,8.206-7.462,8.228-5.679.029-11.171-6.642-14.193-10.789a71.695,71.695,0,0,1-8.407-15.863,104.469,104.469,0,0,1-7.349-36.413c-.239-12.018,2-24.885,10.28-33.6,5.683-5.981,15.162-9.24,23.275-7.133,10.067,2.616,10.091,13.02,10.681,21.617a239.4,239.4,0,0,1-6.824,73.951" transform="translate(-330.135 224.103)" fill="none" clip-rule="evenodd"/>
    </clipPath>
    <clipPath id="clip-path-33">
      <path id="Path_1618" data-name="Path 1618" d="M249.615-175.77c3.663-10.713,6.8-21.977,5.495-33.221-.5-4.306-1.708-8.647-4.333-12.1s-6.854-5.879-11.174-5.529c-11.81.954-18.53,17.616-19.8,27.477q.94-18.679,1.879-37.36a49.079,49.079,0,0,1-24.173-2.434c-.815-.3-2.346,18.833-2.431,20-1.164,16.189-2.815,32.334-3.942,48.529-.7,11.339-1.4,22.7-.9,34.05.192,4.355.584,8.8,2.356,12.782s5.167,7.476,9.447,8.3c6.322,1.218,12.171-3.457,16.558-8.172a114.344,114.344,0,0,0,18.223-26.1c4.516-8.9,9.5-16.588,12.793-26.222" transform="translate(-190.068 238.94)" fill="none" clip-rule="evenodd"/>
    </clipPath>
    <clipPath id="clip-path-34">
      <path id="Path_1620" data-name="Path 1620" d="M255.105-209.477c-.5-4.306-1.708-8.647-4.333-12.1s-6.854-5.879-11.174-5.529c-9.146.738-15.237,10.9-18.11,20.024-.419,4.07-.891,8.133-1.487,12.182-1.872,12.733-4.756,25.729-10.882,37.158a46.667,46.667,0,0,1-11.152,14.124,34.975,34.975,0,0,1-7.8,4.855c.022.64.033,1.281.061,1.921.192,4.355.584,8.8,2.356,12.782s5.167,7.476,9.447,8.3c6.322,1.218,12.171-3.457,16.558-8.172a114.344,114.344,0,0,0,18.223-26.1c4.516-8.9,9.5-16.588,12.793-26.222,3.663-10.713,6.8-21.977,5.495-33.221" transform="translate(-190.172 227.138)" fill="none" clip-rule="evenodd"/>
    </clipPath>
    <clipPath id="clip-path-35">
      <path id="Path_1622" data-name="Path 1622" d="M307.008-266.238c7.35-9.927,9.229-25.423,5.3-37.019-1.795-5.3-5.269-10.184-10.2-12.834-6.188-3.327-14.243-3.464-20.83-1.353a16.237,16.237,0,0,0-7.02,4.08c-5.2,5.55-2.623,12.892-4.669,19.38-1.435,4.546-3.417,8.945-4.182,13.685a20.733,20.733,0,0,0,11.345,22.164c10.842,5.568,23.263,1.333,30.249-8.1" transform="translate(-265.126 318.846)" fill="none" clip-rule="evenodd"/>
    </clipPath>
    <clipPath id="clip-path-36">
      <path id="Path_1624" data-name="Path 1624" d="M278.436-260.228c-11.054-8.132-12.648-21.1-8.2-33.521a40.452,40.452,0,0,0,1.469-4.694,21.278,21.278,0,0,0,.341-5.244,37.134,37.134,0,0,1,.726-7.985c-3.164,5.246-1.361,11.653-3.172,17.394-1.435,4.546-3.417,8.945-4.182,13.685a20.733,20.733,0,0,0,11.345,22.164,22.228,22.228,0,0,0,15.582,1.838,19.5,19.5,0,0,1-13.9-3.636" transform="translate(-265.126 311.673)" fill="none" clip-rule="evenodd"/>
    </clipPath>
    <clipPath id="clip-path-37">
      <path id="Path_1626" data-name="Path 1626" d="M314.486-296.6a7,7,0,0,0-1.01-3.18c-2.418-3.385-6.479-5.724-10.116-7.6A21.288,21.288,0,0,0,294.308-310a29.052,29.052,0,0,0-9.812,1.7,15.669,15.669,0,0,0-6.641,3.644c-1.924,2.014-2.688,4.778-3.253,7.43a22.4,22.4,0,0,0-.513,8.216c.432,2.609,1.831,4.92,2.46,7.487,1.2,4.888-3.253,14.273-9.179,10.042-1.5-1.068-2.015-2.965-2.175-4.708-.733,3.885-1.342,7.794-1.863,11.713-.416,3.133-1.631,7.4.068,10.322,3.619,6.23,15.89,5.426,21.847,4.482a35.972,35.972,0,0,0,22.982-13.285c6.533-8.552,7.58-19.566,6.669-29.982-.033-.377-.069-.753-.107-1.13q-.116-1.128-.266-2.252c-.012-.094-.025-.187-.039-.281" transform="translate(-262.52 310.007)" fill="none" clip-rule="evenodd"/>
    </clipPath>
    <clipPath id="clip-path-38">
      <path id="Path_1628" data-name="Path 1628" d="M314.887-292.943c-.033-.377-.069-.753-.107-1.13q-.116-1.128-.266-2.252c-.012-.094-.025-.187-.039-.281a7,7,0,0,0-1.01-3.18c-2.418-3.385-6.479-5.724-10.116-7.6a23.708,23.708,0,0,0-6.665-2.375,18.959,18.959,0,0,1,4.9,7.925A32.662,32.662,0,0,1,302.4-284.4c-1.57,6.465-6.419,11.886-13.09,13.177-1.539.3-3.124.4-4.634.844a6.905,6.905,0,0,0-3.4,2.361c-2.42,2.9-4.069,6.392-6.729,9.093-2.7,2.744-6.819,4.455-10.664,3.583a9.43,9.43,0,0,1-1.1-.327,5.982,5.982,0,0,0,.6,1.512c3.619,6.23,15.89,5.426,21.847,4.482a35.969,35.969,0,0,0,22.982-13.285c6.533-8.552,7.58-19.566,6.669-29.982" transform="translate(-262.785 309.758)" fill="none" clip-rule="evenodd"/>
    </clipPath>
    <clipPath id="clip-path-39">
      <path id="Path_1630" data-name="Path 1630" d="M270.019-298.664c.18-.075.069-5.731.118-6.345.511-6.2,1.574-13.768,6.434-18.106a17.559,17.559,0,0,1,6.571-3.663c6.875-2.089,16.784-1.456,22.562,3.236,5.634,4.577,7.606,12.332,8.328,19.329.151,1.471.257,2.95.36,4.426a20.622,20.622,0,0,1,.181,3.593c-1.144-1.7-2.949-2.578-4.713-3.479a27.682,27.682,0,0,0-5.879-2.179c-11.1-2.78-23.433-1.252-33.962,3.189" transform="translate(-270.019 327.914)" fill="none" clip-rule="evenodd"/>
    </clipPath>
    <clipPath id="clip-path-40">
      <path id="Path_1633" data-name="Path 1633" d="M313.623-304.716c-.092-.882-.2-1.776-.337-2.675-.217-.073-6.794-5.6-24.705-4.812-12.513.551-17.228,4.643-18.721,5.249-.047.487-.091.969-.13,1.442-.05.613.062,6.27-.118,6.345,10.529-4.442,22.858-5.97,33.962-3.189a27.728,27.728,0,0,1,5.878,2.178c1.765.9,3.571,1.784,4.714,3.479a20.523,20.523,0,0,0-.181-3.593c-.1-1.474-.209-2.955-.361-4.426" transform="translate(-269.612 312.28)" fill="none" clip-rule="evenodd"/>
    </clipPath>
    <clipPath id="clip-path-41">
      <path id="Path_1635" data-name="Path 1635" d="M284.217-295.662c-2.464-1.027-5.455,1.137-6.145,3.5a3.323,3.323,0,0,0,.246,2.561c1.142,2.1,2.764,4.312,3.14,6.709a9.036,9.036,0,0,0,5.056-7.61c.133-1.916-.339-4.347-2.3-5.162" transform="translate(-277.925 295.923)" fill="none" clip-rule="evenodd"/>
    </clipPath>
    <clipPath id="clip-path-42">
      <path id="Path_1637" data-name="Path 1637" d="M279.476-292.1a4.574,4.574,0,0,1,4.164-2.254,3.872,3.872,0,0,1,2.638,1.309,3.7,3.7,0,0,0-2.061-2.613c-2.464-1.027-5.455,1.137-6.145,3.5a3.323,3.323,0,0,0,.246,2.561c.08.146.166.294.25.441a6.222,6.222,0,0,1,.908-2.946" transform="translate(-277.925 295.923)" fill="none" clip-rule="evenodd"/>
    </clipPath>
    <clipPath id="clip-path-43">
      <path id="Path_1639" data-name="Path 1639" d="M285.779-272.358s16.4,6.209,26.839-2.266l3.992,20.956s-13.9,9.105-37.221,4.792l6.39-23.482" transform="translate(-279.389 274.624)" fill="none" clip-rule="evenodd"/>
    </clipPath>
    <clipPath id="clip-path-44">
      <path id="Path_1641" data-name="Path 1641" d="M285.531-250.659c.028-2.6.016-5.2.024-7.8.015-4.351.049-8.7-.042-13.051L279.389-249c2.115.391,4.152.669,6.108.856.017-.837.025-1.675.034-2.511" transform="translate(-279.389 271.512)" fill="none" clip-rule="evenodd"/>
    </clipPath>
    <clipPath id="clip-path-45">
      <path id="Path_1643" data-name="Path 1643" d="M274.533-257.558S296.686-268.477,322-259.3l-.157,11.393s-19.623-9.969-46.048.316l-1.266-9.968" transform="translate(-274.533 262.971)" fill="none" clip-rule="evenodd"/>
    </clipPath>
    <clipPath id="clip-path-46">
      <path id="Path_1645" data-name="Path 1645" d="M376.172-43.525C365.151-51.4,355.828-61.939,353.16-74.937a36.757,36.757,0,0,1-.709-5.692,48.142,48.142,0,0,1,.884-11.133c6.627-34.962,17.523-69.164,23.012-104.35,1.223-7.84,2.068-16.253-1.656-23.335-5.927-11.273-20.591-14.78-31.994-21.148-5.516-3.08-10.485-7.028-16.168-9.817a55.445,55.445,0,0,0-48.614,0c-5.684,2.788-10.652,6.737-16.168,9.817-9.455,5.279-16.917,8.163-28.409,15.695,0,.022-.005.034-.009.056,16.486,22.657,17.481,50.119,2.74,73.74,1.562,6.711,13.445,83.032,25.389,104.6,12.05,21.757,35.207,32.723,57.247,41.7a29.682,29.682,0,0,0,10.163,2.358c6.949.412,13.993.8,20.809-.614s13.489-4.857,17.342-10.654c1.889-2.843,3.026-6.122,4.79-9.044a30.024,30.024,0,0,1,6.36-7.366,8.11,8.11,0,0,1,3.875-2.024c2.073-.327,3.949,1.217,5.617,2.2a9.944,9.944,0,0,0,6.261,1.251l.076-.006a2.321,2.321,0,0,0,.739-4.384c-.233-.117-.431-.211-.583-.279a101.74,101.74,0,0,1-17.982-10.155" transform="translate(-233.328 256.024)" fill="none" clip-rule="evenodd"/>
    </clipPath>
    <clipPath id="clip-path-47">
      <path id="Path_1647" data-name="Path 1647" d="M277.181-236.738c17.372-.869,33.07,5.428,40.892,21.87,9.3,19.558-1.6,39.863-6.8,58.909-3.725,13.623-6.01,27.773-5.5,41.928a81.527,81.527,0,0,0,11.421,39.771,97.953,97.953,0,0,0,23,25.589A140.835,140.835,0,0,0,370.773-30.5c1.628.723,3.272,1.412,4.922,2.083q.893-.881,1.864-1.711a8.115,8.115,0,0,1,3.875-2.024c2.073-.327,3.949,1.217,5.617,2.2a9.944,9.944,0,0,0,6.261,1.251l.076-.006a2.321,2.321,0,0,0,.739-4.384c-.233-.117-.431-.211-.583-.279a101.74,101.74,0,0,1-17.982-10.155C364.541-51.4,355.218-61.939,352.55-74.937a36.754,36.754,0,0,1-.709-5.693,48.138,48.138,0,0,1,.884-11.132c6.627-34.962,17.523-69.164,23.012-104.35,1.223-7.84,2.068-16.253-1.656-23.335-5.927-11.273-20.591-14.78-31.994-21.148-5.516-3.08-10.485-7.028-16.168-9.817a55.445,55.445,0,0,0-48.614,0c-5.684,2.788-10.652,6.737-16.168,9.817-4.56,2.547-8.659,4.538-12.967,6.76,9.705-.579,19.3-2.416,29.011-2.9" transform="translate(-248.17 256.024)" fill="none" clip-rule="evenodd"/>
    </clipPath>
    <clipPath id="clip-path-48">
      <path id="Path_1649" data-name="Path 1649" d="M290.285-36.642c3.564,1.449,6.774,3.626,10.131,5.506,8.088,4.529,17.032,7.328,26.048,9.48,3.261.779,6.692,1.474,9.93.6a15.408,15.408,0,0,0,3.339-1.166c1.227-.689,2.151-1.726,3.518-2.211a3.883,3.883,0,0,1,3.385.228,2.918,2.918,0,0,1,1.294,2.275,2.918,2.918,0,0,1-1.093,2.376c.818-.207,1.489.739,1.563,1.58.15,1.707-.981,3.251-2.176,4.479a.941.941,0,0,1,1.233.688,2.149,2.149,0,0,1-.354,1.544,6.543,6.543,0,0,1-2.443,2.423.688.688,0,0,1,.425.92,1.881,1.881,0,0,1-.783.831c-8.477,5.788-18.974,4.564-28.642,4.55-11.548-.019-22.486-.731-33.4-4.887-6.22-2.365-10.648-6.428-14.881-11.513,2.958-1.341,6.133-2.916,7.527-5.85,1.1-2.308.862-5.034,1.695-7.449,2.149-6.237,8.447-6.537,13.689-4.4" transform="translate(-267.374 37.837)" fill="none" clip-rule="evenodd"/>
    </clipPath>
    <clipPath id="clip-path-49">
      <path id="Path_1651" data-name="Path 1651" d="M287.1-30.907a36.515,36.515,0,0,0,8.859,12.347,44.7,44.7,0,0,0,11.295,8.169c10.907,5.3,23.725,5.365,35.608,3.722.228-.144.459-.273.684-.426a1.881,1.881,0,0,0,.783-.831.687.687,0,0,0-.425-.92,6.543,6.543,0,0,0,2.443-2.423,2.149,2.149,0,0,0,.354-1.544.941.941,0,0,0-1.233-.688c1.2-1.227,2.326-2.771,2.177-4.479-.075-.841-.745-1.788-1.564-1.58a2.918,2.918,0,0,0,1.093-2.376,2.918,2.918,0,0,0-1.294-2.275,3.883,3.883,0,0,0-3.385-.228c-1.367.485-2.29,1.522-3.518,2.211a15.408,15.408,0,0,1-3.339,1.166c-3.238.872-6.669.177-9.93-.6-9.016-2.152-17.96-4.951-26.048-9.48-3.357-1.88-6.567-4.057-10.131-5.506a16.5,16.5,0,0,0-3.687-1.029,16.762,16.762,0,0,0,1.257,6.77" transform="translate(-285.831 37.677)" fill="none" clip-rule="evenodd"/>
    </clipPath>
    <clipPath id="clip-path-50">
      <path id="Path_1653" data-name="Path 1653" d="M203.636-243.9h.195" transform="translate(-203.636 243.897)" fill="none" clip-rule="evenodd"/>
    </clipPath>
    <clipPath id="clip-path-51">
      <path id="Path_1655" data-name="Path 1655" d="M213.611-257.716v.087" transform="translate(-213.611 257.716)" fill="none" clip-rule="evenodd"/>
    </clipPath>
    <clipPath id="clip-path-52">
      <path id="Path_1657" data-name="Path 1657" d="M34.877-185.456,22.758-173.337l12.119,12.117v17.139H52.015l12.118,12.118,12.118-12.118H93.389v-17.139l12.119-12.117L93.389-185.455v-17.139H76.252L64.134-214.712,52.015-202.594H34.877v17.138" transform="translate(-22.758 214.712)" fill="none" clip-rule="evenodd"/>
    </clipPath>
    <clipPath id="clip-path-53">
      <path id="Path_1659" data-name="Path 1659" d="M34.877-144.081H52.015l.433.432a132.621,132.621,0,0,0,27.486-43.108,112.845,112.845,0,0,0,4.474-15.837H76.252L64.134-214.712,52.015-202.594H34.877v17.138L22.758-173.337l12.119,12.117v17.139" transform="translate(-22.758 214.712)" fill="none" clip-rule="evenodd"/>
    </clipPath>
    <clipPath id="clip-path-54">
      <path id="Path_1661" data-name="Path 1661" d="M402.948-375.788v.089" transform="translate(-402.948 375.788)" fill="none" clip-rule="evenodd"/>
    </clipPath>
  </defs>
  <g id="Group_7196" data-name="Group 7196" transform="translate(23.065 -143.824)">
    <path id="Path_1662" data-name="Path 1662" d="M392.151-23.327C485.4,34.746,519.04,117.291,519.04,117.291L518.687,405.9S411.867,549.016,277.481,548.07,34.565,451.075,34.565,298.757c0-102.054-8.539-180.162,59.044-264.815S298.9-81.4,392.151-23.327Z" transform="translate(-19.094 197)" fill="#528fb7"/>
    <path id="Path_1663" data-name="Path 1663" d="M248.283-39.887c106.253,2.794,169.295,98.11,169.295,98.11L417.3,238.405s-84.45,89.352-190.691,88.762S34.565,266.611,34.565,171.516,142.03-42.681,248.283-39.887Z" transform="translate(-57.631 476.435)" fill="#528fb7" opacity="0.8"/>
    <g id="Group_7178" data-name="Group 7178" transform="translate(9.494 730.162)">
      <g id="Group_7121" data-name="Group 7121" transform="translate(237.268 -359.89)" clip-path="url(#clip-path)">
        <path id="Path_1557" data-name="Path 1557" d="M226.9-364.81h7.572v2.3H226.9Z" transform="translate(-227.943 363.769)" fill="#a9bbd6"/>
      </g>
      <g id="Group_7122" data-name="Group 7122" transform="translate(0 -455.379)" clip-path="url(#clip-path-2)">
        <path id="Path_1559" data-name="Path 1559" d="M-1-456.53H337.492v347.346H-1Z" transform="translate(-0.041 455.489)" fill="#ec9439"/>
      </g>
      <g id="Group_7123" data-name="Group 7123" transform="translate(0 -455.379)" clip-path="url(#clip-path-3)">
        <path id="Path_1561" data-name="Path 1561" d="M-1-456.53H216.184V-111.1H-1Z" transform="translate(-0.041 455.489)" fill="#f4b850"/>
      </g>
      <g id="Group_7124" data-name="Group 7124" transform="translate(2.425 -257.405)" clip-path="url(#clip-path-4)">
        <path id="Path_1563" data-name="Path 1563" d="M-1-267.295H205.6v94.673H-1Z" transform="translate(-2.466 265.292)" fill="#a9bbd6"/>
      </g>
      <g id="Group_7125" data-name="Group 7125" transform="translate(219.806 -406.007)" clip-path="url(#clip-path-5)">
        <path id="Path_1565" data-name="Path 1565" d="M210.129-410.031h206.76v94.673H210.129Z" transform="translate(-211.17 408.028)" fill="#a9bbd6"/>
      </g>
      <g id="Group_7126" data-name="Group 7126" transform="translate(61.244 -459.196)" clip-path="url(#clip-path-6)">
        <path id="Path_1567" data-name="Path 1567" d="M57.826-460.2H454.52V19.954H57.826Z" transform="translate(-58.867 459.155)" fill="#1c2845"/>
      </g>
      <g id="Group_7127" data-name="Group 7127" transform="translate(61.244 -394.166)" clip-path="url(#clip-path-7)">
        <path id="Path_1569" data-name="Path 1569" d="M57.826-397.733H183.308V17.387H57.826Z" transform="translate(-58.867 396.692)" fill="#22385f"/>
      </g>
      <g id="Group_7128" data-name="Group 7128" transform="translate(158.541 -459.196)" clip-path="url(#clip-path-8)">
        <path id="Path_1571" data-name="Path 1571" d="M142.057-460.2h196.2v268.368h-196.2Z" transform="translate(-152.703 459.155)" fill="#22385f"/>
      </g>
      <g id="Group_7129" data-name="Group 7129" transform="translate(377.373 -394.166)" clip-path="url(#clip-path-9)">
        <path id="Path_1573" data-name="Path 1573" d="M361.476-397.733H383.87V-338.2H361.476Z" transform="translate(-362.517 396.692)" fill="#22385f"/>
      </g>
      <g id="Group_7136" data-name="Group 7136" transform="translate(414.285 -216.789)" clip-path="url(#clip-path-10)">
        <g id="Group_7135" data-name="Group 7135" transform="translate(-0.97 -1.709)" style="isolation: isolate">
          <g id="Group_7134" data-name="Group 7134" clip-path="url(#clip-path-11)">
            <g id="Group_7131" data-name="Group 7131" transform="translate(0.97 1.709)" clip-path="url(#clip-path-12)">
              <g id="Group_7130" data-name="Group 7130" transform="translate(-0.97 -0.668)" clip-path="url(#clip-path-13)">
                <path id="Path_1575" data-name="Path 1575" d="M396.422-228h66.471V-43.769H396.422Z" transform="translate(-397.024 226.959)" fill="#209d68"/>
              </g>
            </g>
            <g id="Group_7133" data-name="Group 7133" transform="translate(4.719 54.93)" clip-path="url(#clip-path-14)">
              <g id="Group_7132" data-name="Group 7132" transform="translate(-4.719 -53.889)" clip-path="url(#clip-path-13)">
                <path id="Path_1578" data-name="Path 1578" d="M400.022-176.955h65.566V-45.866H400.022Z" transform="translate(-396.876 229.057)" fill="#1d8557"/>
              </g>
            </g>
          </g>
        </g>
      </g>
      <g id="Group_7137" data-name="Group 7137" transform="translate(373.058 -163.568)" clip-path="url(#clip-path-16)">
        <path id="Path_1582" data-name="Path 1582" d="M356.489-176.955h66.472V-45.866H356.489Z" transform="translate(-358.407 175.167)" fill="#1d8557"/>
      </g>
      <g id="Group_7138" data-name="Group 7138" transform="translate(364.063 -120.842)" clip-path="url(#clip-path-17)">
        <path id="Path_1584" data-name="Path 1584" d="M347.849-135.679H414.32v88.116H347.849Z" transform="translate(-349.768 134.137)" fill="#209d68"/>
      </g>
      <g id="Group_7139" data-name="Group 7139" transform="translate(67.092 -162.167)" clip-path="url(#clip-path-18)">
        <path id="Path_1586" data-name="Path 1586" d="M62.945-175.913H129.4V8.209H62.945Z" transform="translate(-64.506 173.809)" fill="#209d68"/>
      </g>
      <g id="Group_7140" data-name="Group 7140" transform="translate(70.839 -108.945)" clip-path="url(#clip-path-19)">
        <path id="Path_1588" data-name="Path 1588" d="M66.533-124.488H133V6.1H66.533Z" transform="translate(-68.105 122.701)" fill="#1d8557"/>
      </g>
      <g id="Group_7141" data-name="Group 7141" transform="translate(25.864 -108.945)" clip-path="url(#clip-path-20)">
        <path id="Path_1590" data-name="Path 1590" d="M23-124.488H89.471V6.1H23Z" transform="translate(-24.918 122.701)" fill="#1d8557"/>
      </g>
      <g id="Group_7142" data-name="Group 7142" transform="translate(16.868 -66.219)" clip-path="url(#clip-path-21)">
        <path id="Path_1592" data-name="Path 1592" d="M14.36-83.213H80.794V4.4H14.36Z" transform="translate(-16.278 81.67)" fill="#209d68"/>
      </g>
      <g id="Group_7143" data-name="Group 7143" transform="translate(62.847 -36.032)" clip-path="url(#clip-path-22)">
        <path id="Path_1594" data-name="Path 1594" d="M59.366-53.736H454.647V3.249H59.366Z" transform="translate(-60.407 52.695)" fill="#de4b50"/>
      </g>
      <g id="Group_7144" data-name="Group 7144" transform="translate(72.34 -32.871)" clip-path="url(#clip-path-23)">
        <path id="Path_1596" data-name="Path 1596" d="M68.484-50.7H444.779V-.036H68.484Z" transform="translate(-69.525 49.659)" fill="#da313b"/>
      </g>
      <g id="Group_7145" data-name="Group 7145" transform="translate(90.03 -32.38)">
        <path id="Path_1598" data-name="Path 1598" d="M312.305,23.963c0,13.235-64.477,23.965-144.012,23.965S24.281,37.2,24.281,23.963,88.758,0,168.293,0,312.305,10.729,312.305,23.963ZM68.643.517c57.6,3.135,99.217,12.15,99.217,22.782,0,13.235-64.476,23.963-144.012,23.963-8.124,0-16.091-.111-23.847-.326ZM280.559,46.689c-53.662-3.484-92.517-12.563-92.517-22.726C188.042,10.729,252.518,0,332.054,0c6.736,0,16.531.05,23.021.2Z" fill="none" stroke="#de4b50" stroke-linecap="round" stroke-linejoin="round" stroke-width="1.772"/>
      </g>
      <g id="Group_7146" data-name="Group 7146" transform="translate(371.856 -33.468)" clip-path="url(#clip-path-24)">
        <path id="Path_1599" data-name="Path 1599" d="M355.938-51.543h27.683V-22.08H355.938Z" transform="translate(-357.228 50.221)" fill="#ca835f"/>
      </g>
      <g id="Group_7147" data-name="Group 7147" transform="translate(159.864 -120.283)" clip-path="url(#clip-path-25)">
        <path id="Path_1601" data-name="Path 1601" d="M152.277-138.292H345.542V4.467H152.277Z" transform="translate(-153.606 133.471)" fill="#d5dfe9"/>
      </g>
      <g id="Group_7148" data-name="Group 7148" transform="translate(202.714 -120.283)" clip-path="url(#clip-path-26)">
        <path id="Path_1603" data-name="Path 1603" d="M193.712-138.292H343.839V2.694H193.712Z" transform="translate(-194.753 133.471)" fill="#a9bbd6"/>
      </g>
      <g id="Group_7149" data-name="Group 7149" transform="translate(205.814 -278.874)" clip-path="url(#clip-path-27)">
        <path id="Path_1605" data-name="Path 1605" d="M196.03-288.225h31.893v59.451H196.03Z" transform="translate(-197.758 285.9)" fill="#ca835f"/>
      </g>
      <g id="Group_7150" data-name="Group 7150" transform="translate(199.6 -262.173)" clip-path="url(#clip-path-28)">
        <path id="Path_1607" data-name="Path 1607" d="M190.036-271.011h23.81v40.049h-23.81Z" transform="translate(-191.79 269.907)" fill="#eea277"/>
      </g>
      <g id="Group_7151" data-name="Group 7151" transform="translate(253.176 -268.197)" clip-path="url(#clip-path-29)">
        <path id="Path_1609" data-name="Path 1609" d="M242.057-277.97H273.95v59.45H242.057Z" transform="translate(-243.228 275.645)" fill="#ca835f"/>
      </g>
      <g id="Group_7152" data-name="Group 7152" transform="translate(267.909 -251.497)" clip-path="url(#clip-path-30)">
        <path id="Path_1611" data-name="Path 1611" d="M255.815-260.757h23.81v40.05h-23.81Z" transform="translate(-257.396 259.652)" fill="#eea277"/>
      </g>
      <g id="Group_7153" data-name="Group 7153" transform="translate(220.471 -265.116)" clip-path="url(#clip-path-31)">
        <path id="Path_1613" data-name="Path 1613" d="M210.768-273.777h2.083v2.085h-2.083Z" transform="translate(-211.809 272.736)" fill="#ca835f"/>
      </g>
      <g id="Group_7154" data-name="Group 7154" transform="translate(343.702 -214.441)" clip-path="url(#clip-path-32)">
        <path id="Path_1615" data-name="Path 1615" d="M328.921-226.51h48.262V-118.5H328.921Z" transform="translate(-330.185 224.004)" fill="#a9bbd6"/>
      </g>
      <g id="Group_7155" data-name="Group 7155" transform="translate(197.879 -229.889)" clip-path="url(#clip-path-33)">
        <path id="Path_1617" data-name="Path 1617" d="M188.751-240.224h68.76v127.262h-68.76Z" transform="translate(-190.122 238.888)" fill="#d5dfe9"/>
      </g>
      <g id="Group_7156" data-name="Group 7156" transform="translate(197.987 -217.601)" clip-path="url(#clip-path-34)">
        <path id="Path_1619" data-name="Path 1619" d="M189.172-228.442h68.322v115H189.172Z" transform="translate(-190.213 227.085)" fill="#a9bbd6"/>
      </g>
      <g id="Group_7157" data-name="Group 7157" transform="translate(276.022 -313.078)" clip-path="url(#clip-path-35)">
        <path id="Path_1621" data-name="Path 1621" d="M262.959-320.527h54.409v69.069H262.959Z" transform="translate(-265.215 318.777)" fill="#ca835f"/>
      </g>
      <g id="Group_7158" data-name="Group 7158" transform="translate(276.022 -305.61)" clip-path="url(#clip-path-36)">
        <path id="Path_1623" data-name="Path 1623" d="M262.959-312.673h30.512v58.392H262.959Z" transform="translate(-265.215 311.632)" fill="#eea277"/>
      </g>
      <g id="Group_7159" data-name="Group 7159" transform="translate(273.309 -303.876)" clip-path="url(#clip-path-37)">
        <path id="Path_1625" data-name="Path 1625" d="M260.732-311.1h56.191v64.263H260.732Z" transform="translate(-262.594 309.963)" fill="#7b1e24"/>
      </g>
      <g id="Group_7160" data-name="Group 7160" transform="translate(273.585 -303.617)" clip-path="url(#clip-path-38)">
        <path id="Path_1627" data-name="Path 1627" d="M261.785-310.758H316.88v63.912H261.785Z" transform="translate(-262.826 309.717)" fill="#5d181c"/>
      </g>
      <g id="Group_7161" data-name="Group 7161" transform="translate(281.116 -322.519)" clip-path="url(#clip-path-39)">
        <path id="Path_1629" data-name="Path 1629" d="M269.019-329.83h46.765v34.755H269.019Z" transform="translate(-270.06 327.836)" fill="#fffefe"/>
      </g>
      <g id="Group_7162" data-name="Group 7162" transform="translate(282.683 -312.281)">
        <path id="Path_1631" data-name="Path 1631" d="M40.163,3.912l-3.13,4.042L31.688.39,26.081,6,19.82,0,14.213,6.519,8.607,1.043l-5.086,7.3L0,3.912" fill="none" stroke="#7796c1" stroke-linecap="round" stroke-linejoin="round" stroke-width="0.95"/>
      </g>
      <g id="Group_7163" data-name="Group 7163" transform="translate(280.692 -306.242)" clip-path="url(#clip-path-40)">
        <path id="Path_1632" data-name="Path 1632" d="M268.612-313.963h46.766v18.375H268.612Z" transform="translate(-269.653 312.211)" fill="#d5dfe9"/>
      </g>
      <g id="Group_7164" data-name="Group 7164" transform="translate(289.346 -289.214)" clip-path="url(#clip-path-41)">
        <path id="Path_1634" data-name="Path 1634" d="M276.823-297.658h10.911v15.881H276.823Z" transform="translate(-277.97 295.852)" fill="#ca835f"/>
      </g>
      <g id="Group_7165" data-name="Group 7165" transform="translate(289.346 -289.214)" clip-path="url(#clip-path-42)">
        <path id="Path_1636" data-name="Path 1636" d="M276.823-297.658h10.542v9.613H276.823Z" transform="translate(-277.97 295.852)" fill="#eea277"/>
      </g>
      <g id="Group_7166" data-name="Group 7166" transform="translate(290.871 -267.039)" clip-path="url(#clip-path-43)">
        <path id="Path_1638" data-name="Path 1638" d="M278.389-275.624h39.3v32.144h-39.3Z" transform="translate(-279.43 274.583)" fill="#ca835f"/>
      </g>
      <g id="Group_7167" data-name="Group 7167" transform="translate(290.871 -263.799)" clip-path="url(#clip-path-44)">
        <path id="Path_1640" data-name="Path 1640" d="M278.389-272.512h8.3v25.446h-8.3Z" transform="translate(-279.43 271.471)" fill="#eea277"/>
      </g>
      <g id="Group_7168" data-name="Group 7168" transform="translate(285.815 -254.907)" clip-path="url(#clip-path-45)">
        <path id="Path_1642" data-name="Path 1642" d="M273.533-269.26h49.553v22.97H273.533Z" transform="translate(-274.574 262.713)" fill="#d5dfe9"/>
      </g>
      <g id="Group_7169" data-name="Group 7169" transform="translate(242.917 -247.674)" clip-path="url(#clip-path-46)">
        <path id="Path_1644" data-name="Path 1644" d="M232.328-258.832H397.875V-.492H232.328Z" transform="translate(-233.369 255.908)" fill="#fffefe"/>
      </g>
      <g id="Group_7170" data-name="Group 7170" transform="translate(258.369 -247.674)" clip-path="url(#clip-path-47)">
        <path id="Path_1646" data-name="Path 1646" d="M247.17-258.832H397.265V-27.258H247.17Z" transform="translate(-248.211 255.908)" fill="#d5dfe9"/>
      </g>
      <g id="Group_7171" data-name="Group 7171" transform="translate(278.362 -20.52)" clip-path="url(#clip-path-48)">
        <path id="Path_1648" data-name="Path 1648" d="M266.374-39.737h83.258V-.179H266.374Z" transform="translate(-267.415 37.758)" fill="#eea277"/>
      </g>
      <g id="Group_7172" data-name="Group 7172" transform="translate(297.578 -20.354)" clip-path="url(#clip-path-49)">
        <path id="Path_1650" data-name="Path 1650" d="M284.762-38.677h64.114V-3.943H284.762Z" transform="translate(-285.875 37.636)" fill="#ca835f"/>
      </g>
      <g id="Group_7173" data-name="Group 7173" transform="translate(212.005 -235.049)" clip-path="url(#clip-path-50)">
        <path id="Path_1652" data-name="Path 1652" d="M202.636-244.9h2.277v2h-2.277Z" transform="translate(-203.677 243.897)" fill="#eea277"/>
      </g>
      <g id="Group_7174" data-name="Group 7174" transform="translate(222.39 -249.436)" clip-path="url(#clip-path-51)">
        <path id="Path_1654" data-name="Path 1654" d="M212.611-258.716h2v2.17h-2Z" transform="translate(-213.611 257.675)" fill="#ca835f"/>
      </g>
      <g id="Group_7175" data-name="Group 7175" transform="translate(23.693 -204.665)" clip-path="url(#clip-path-52)">
        <path id="Path_1656" data-name="Path 1656" d="M21.758-215.712h84.833v84.832H21.758Z" transform="translate(-22.799 214.671)" fill="#ec9439"/>
      </g>
      <g id="Group_7176" data-name="Group 7176" transform="translate(23.693 -204.665)" clip-path="url(#clip-path-53)">
        <path id="Path_1658" data-name="Path 1658" d="M21.758-215.712H85.49v73.145H21.758Z" transform="translate(-22.799 214.671)" fill="#f4b850"/>
      </g>
      <g id="Group_7177" data-name="Group 7177" transform="translate(419.508 -372.36)" clip-path="url(#clip-path-54)">
        <path id="Path_1660" data-name="Path 1660" d="M401.948-376.788h2v2.171h-2Z" transform="translate(-402.948 375.747)" fill="#a9bbd6"/>
      </g>
    </g>
  </g>
</svg>
