<svg id="Group_6676" data-name="Group 6676" xmlns="http://www.w3.org/2000/svg" width="34.834" height="34.815" viewBox="0 0 34.834 34.815">
  <path id="Path_134" data-name="Path 134" d="M501.192,487.3l.381,2.56,2.571.384a.768.768,0,0,1,.229,1.447l-2.325,1.16.43,2.557a.768.768,0,0,1-1.305.665l-1.82-1.85-2.293,1.2a.768.768,0,0,1-1.037-1.036l1.2-2.3-1.852-1.818a.768.768,0,0,1,.665-1.3l2.557.427,1.155-2.32A.768.768,0,0,1,501.192,487.3Z" transform="translate(-470.313 -486.195)" fill="#fff"/>
  <path id="Path_1498" data-name="Path 1498" d="M496.559,504.432A12.835,12.835,0,1,1,479.9,487.961a.974.974,0,0,0-.417-1.884l-.214.021a17.445,17.445,0,1,0,19.208,18.964c.006-.072.013-.144.018-.217A1,1,0,0,0,496.559,504.432Z" transform="translate(-463.667 -486.073)" fill="#fff"/>
</svg>
