<svg xmlns="http://www.w3.org/2000/svg" width="126.831" height="14.901" viewBox="0 0 126.831 14.901">
  <g id="Group_6605" data-name="Group 6605" transform="translate(-422.775 -588.338)">
    <g id="Group_6603" data-name="Group 6603">
      <path id="Path_1485" data-name="Path 1485" d="M424.661,588.576v12.911h5.057v1.534h-6.943V588.576Z" fill="#f8f8f8"/>
      <path id="Path_1486" data-name="Path 1486" d="M439.505,590.11H433.62v4.829h5.263v1.554H433.62v4.974h5.885v1.554h-7.772V588.555h7.772Z" fill="#f8f8f8"/>
      <path id="Path_1487" data-name="Path 1487" d="M450.909,599.809h-6.3l-1.16,3.212h-1.99l5.222-14.362h2.176l5.2,14.362h-1.99Zm-3.149-8.829-2.612,7.3h5.222Z" fill="#f8f8f8"/>
      <path id="Path_1488" data-name="Path 1488" d="M461.01,588.576c3.4,0,5.015,1.886,5.015,4.248a4.075,4.075,0,0,1-3.44,4.146l3.627,6.051h-2.259l-3.441-5.906h-2.28v5.906h-1.886V588.576Zm0,1.554h-2.778V595.6h2.778c2.135,0,3.067-1.161,3.067-2.778C464.077,591.188,463.165,590.13,461.01,590.13Z" fill="#f8f8f8"/>
      <path id="Path_1489" data-name="Path 1489" d="M480.312,588.555v14.466h-1.887l-7.585-11.5v11.5h-1.886V588.555h1.886l7.585,11.482V588.555Z" fill="#f8f8f8"/>
    </g>
    <g id="Group_6604" data-name="Group 6604">
      <path id="Path_1490" data-name="Path 1490" d="M489.087,588.545h3.544v14.548h-3.544Z" fill="#f8f8f8"/>
      <path id="Path_1491" data-name="Path 1491" d="M500.469,603.239c-3.13,0-5.575-1.555-5.678-4.5h3.772a1.667,1.667,0,0,0,1.8,1.658c1.036,0,1.7-.518,1.7-1.367,0-2.7-7.273-1.244-7.233-6.4,0-2.756,2.26-4.289,5.306-4.289,3.171,0,5.306,1.574,5.451,4.352h-3.834a1.575,1.575,0,0,0-1.679-1.513,1.289,1.289,0,0,0-1.492,1.326c0,2.528,7.192,1.388,7.192,6.259C505.775,601.208,503.868,603.239,500.469,603.239Z" fill="#f8f8f8"/>
      <path id="Path_1492" data-name="Path 1492" d="M511.5,588.545v11.813h4.642v2.735h-8.186V588.545Z" fill="#f8f8f8"/>
      <path id="Path_1493" data-name="Path 1493" d="M526.9,600.523h-5.43l-.869,2.57h-3.711l5.265-14.548h4.1l5.265,14.548h-3.751Zm-2.715-8.062-1.782,5.327h3.586Z" fill="#f8f8f8"/>
      <path id="Path_1494" data-name="Path 1494" d="M533.129,588.545h4.187l4.082,10.071,4.042-10.071h4.166v14.548h-3.543v-8.725l-3.254,8.725h-2.86l-3.276-8.745v8.745h-3.544Z" fill="#f8f8f8"/>
    </g>
  </g>
</svg>
