<svg xmlns="http://www.w3.org/2000/svg" xmlns:xlink="http://www.w3.org/1999/xlink" width="411.56" height="286.283" viewBox="0 0 411.56 286.283">
  <defs>
    <radialGradient id="radial-gradient" cx="0.5" cy="0.5" r="0.5" gradientUnits="objectBoundingBox">
      <stop offset="0" stop-opacity="0.2"/>
      <stop offset="0.264" stop-opacity="0.102"/>
      <stop offset="1" stop-color="gray" stop-opacity="0"/>
    </radialGradient>
  </defs>
  <g id="Group_6603" data-name="Group 6603" transform="translate(-427.53 -486.073)">
    <g id="Group_6606" data-name="Group 6606" transform="translate(427.53 619.159)">
      <path id="Path_155" data-name="Path 155" d="M756.71,599.837,632.957,638.542a50.476,50.476,0,0,1-28.173.567l-154.293-41.5a8.826,8.826,0,0,1-.542-16.881l117.521-39.825a50.451,50.451,0,0,1,29.307-.937l159.593,42.924A8.824,8.824,0,0,1,756.71,599.837Z" transform="translate(-386.116 -487.645)" fill="#474f57"/>
      <path id="Path_156" data-name="Path 156" d="M644.137,578V549.2a8.067,8.067,0,0,0-10.486-7.7L504.475,582.115a25.84,25.84,0,0,1-14.462.3h0l-1.933,45.2h0a32.752,32.752,0,0,0,18.293-.394L638.489,585.7A8.073,8.073,0,0,0,644.137,578Z" transform="translate(-274.871 -480.371)" fill="#fff"/>
      <path id="Path_155-2" data-name="Path 155" d="M773.956,589.588,650.2,628.29a50.477,50.477,0,0,1-28.173.567L439.542,581.426c-3.461-.951-3.317-6.514,1.074-7.905l126.465-46.543a50.44,50.44,0,0,1,29.3-.94l177.231,46.6A8.827,8.827,0,0,1,773.956,589.588Z" transform="translate(-403.362 -522.767)" fill="#474f57"/>
      <path id="Path_1495" data-name="Path 1495" d="M509.616,572.343s-1.511-12.93,8.881-15.514l-15.807-3.61-15.613,7.219,17.173,41.374,16.666-8.831s-10.687,5.271-10.687-4.292C510.229,579.075,509.616,572.343,509.616,572.343Z" transform="translate(-277.399 -449.869)" fill="#474f57"/>
      <path id="Path_1496" data-name="Path 1496" d="M444.06,538.282s-8.31,2.335-8.31,16.342l19.582-.144Z" transform="translate(-406.806 -487.528)" fill="#474f57"/>
      <path id="Path_1497" data-name="Path 1497" d="M491.954,575.682l5.662-1.852s.1-.683.1-10.247" transform="translate(-265.103 -423.738)" fill="#474f57"/>
      <path id="Path_158" data-name="Path 158" d="M435.63,572.727c0-5.124.194-12.053.422-23.032a9.613,9.613,0,0,1,12.085-9.124l184.636,49.66a9.562,9.562,0,0,1,7.1,9.314c-.049,6.324-.1,15.937-.053,25.747a9.59,9.59,0,0,1-12.081,9.306L442.511,584.777C440.778,584.315,435.581,582.336,435.63,572.727Z" transform="translate(-407.109 -482.599)" fill="#363e46"/>
      <rect id="Rectangle_1121" data-name="Rectangle 1121" width="107.418" height="411.56" transform="translate(0 108.955) rotate(-90)" fill="url(#radial-gradient)"/>
      <rect id="Rectangle_1122" data-name="Rectangle 1122" width="107.418" height="411.56" transform="translate(0 107.418) rotate(-90)" fill="url(#radial-gradient)"/>
    </g>
    <g id="Group_6607" data-name="Group 6607" transform="translate(554.778 486.073)">
      <path id="Path_134" data-name="Path 134" d="M522.174,489.575l1.7,11.426,11.479,1.715a3.428,3.428,0,0,1,1.021,6.458L526,514.354l1.919,11.412a3.428,3.428,0,0,1-5.828,2.968l-8.124-8.261-10.236,5.345a3.43,3.43,0,0,1-4.63-4.624l5.342-10.257-8.268-8.116A3.427,3.427,0,0,1,499.142,497l11.416,1.908,5.155-10.356A3.43,3.43,0,0,1,522.174,489.575Z" transform="translate(-384.33 -484.62)" fill="#fff"/>
      <path id="Path_1498" data-name="Path 1498" d="M610.5,568.03A57.157,57.157,0,0,1,595.934,589.8c-21.518,20.124-55.762,20.391-77.569.581A57.3,57.3,0,0,1,536.14,494.5c4.7-1.814,3.159-8.866-1.863-8.409-.317.028-.637.06-.954.095a77.873,77.873,0,0,0,16.286,154.892c36.67-3.69,66.153-33.529,69.46-70.238.028-.321.057-.645.081-.969C619.551,564.737,612.3,563.2,610.5,568.03Z" transform="translate(-463.668 -486.073)" fill="#fff"/>
    </g>
  </g>
</svg>
